<?xml version="1.0" encoding="utf-8"?>
<svg version="1.1" id="Layer_1" xmlns="http://www.w3.org/2000/svg" xmlns:xlink="http://www.w3.org/1999/xlink" x="0px" y="0px"
	 viewBox="0 0 23.4 24" style="enable-background:new 0 0 23.4 24;" xml:space="preserve">
<title>favicon</title>
<path d="M20.9,0.6c-0.7,0.6-0.9,1.5-1.4,1.7c-2.3,1.3-2.9,1.3-4.9,0.5c0,0,0,0-0.1,0c-1.3-0.5-2.8,0.1-3.3,1.4L9.9,7.6
	C9.7,8.1,9.2,8.4,8.7,8.2C5.3,6.8,6,1.5,1.1,2.1c-0.2,0-0.4,0.1-0.6,0.3C0,2.9-0.1,3.7,0.3,4.3c3.4,5.8,6.6,10.7,9.9,16.2
	c3,6.7,2.9,2.1,2.9-0.9v-0.1c-0.2-3.6-0.2-7.2,0-10.8c0-0.8,1-0.8,2-1.5c0.4-0.3,1.1,0.3,1.4,0.7c0.3,0.4,0.7,0.8,1.1,1.2
	c0.1,0.1,0.2,0.3,0.3,0.4c0.7,0.5,1.5,0.7,1.9-0.1l2.8-6.3C23.4,2,24.2-1.3,20.9,0.6z M15.2,6.7c-0.6,0-0.8-0.5-0.8-1.1
	c0-0.7,0.3-1.7,0.8-1.4c0.6,0.3,0.8,0.8,0.8,1.4C16.1,6.2,15.9,6.7,15.2,6.7z"/>
</svg>
