<svg id="Layer_1" data-name="Layer 1" xmlns="http://www.w3.org/2000/svg" viewBox="0 0 23.35 24.04"><title>favicon</title><path d="M361,387.25l-2.81,6.33c-.35.79-1.13.65-1.88.1a5,5,0,0,0-.33-.42,9.85,9.85,0,0,1-1.08-1.2c-.29-.43-.92-1-1.35-.75-1,.67-2,.75-2,1.51a99.93,99.93,0,0,0,0,10.81v.06c0,2.93.15,7.61-2.88.87-3.34-5.52-6.53-10.38-9.94-16.23a1.58,1.58,0,0,1,.2-2,1,1,0,0,1,.58-.29c4.92-.58,4.2,4.7,7.6,6.13a.92.92,0,0,0,1.18-.54l1.4-3.48a2.55,2.55,0,0,1,3.38-1.38c2,.85,2.56.8,4.87-.46.47-.25.67-1.11,1.36-1.71C362.64,382.65,361.83,385.94,361,387.25Z" transform="translate(-338.38 -383.98)"/></svg>