<?xml version="1.0" encoding="utf-8"?>
<!-- Generator: Adobe Illustrator 23.0.1, SVG Export Plug-In . SVG Version: 6.00 Build 0)  -->
<svg version="1.1" id="Layer_1" xmlns="http://www.w3.org/2000/svg" xmlns:xlink="http://www.w3.org/1999/xlink" x="0px" y="0px"
	 viewBox="0 0 515.9 728.5" style="enable-background:new 0 0 515.9 728.5;" xml:space="preserve">
<style type="text/css">.st0{fill:#FFFFFF;}</style>
<g>
	<path class="st0" d="M-246.2,237.5c47.2,0,94.5,0,141.7,0c5.1,0,10.3,0.1,15.4-0.1c12.8-0.4,23-11.1,23-23.9
		c0-13.4-10.6-24-24.5-24c-103.7,0-207.4,0-311.1,0c-0.6,0-1.3,0-1.9,0c-12.2,0.7-22.2,11.1-22.4,23.4c-0.3,13.9,10.5,24.6,25,24.6
		C-349.4,237.5-297.8,237.5-246.2,237.5z M-245.9,309.5c-43.6,0-87.2,0-130.8,0c-8.6,0-17.2-0.1-25.9,0
		c-15.2,0.3-26.1,14.3-22.9,29.1c2.6,11.6,12.1,18.9,25,18.9c103,0,205.9,0,308.9,0c1,0,2,0,3,0c12.3-0.7,22.3-11,22.5-23.3
		c0.3-13.9-10.5-24.6-25-24.6C-142.7,309.4-194.3,309.5-245.9,309.5z M-245.9,429.5c-45.1,0-90.2,0-135.3,0
		c-7.2,0-14.5-0.2-21.7,0.1c-14.8,0.4-25.6,14.3-22.5,28.7c2.5,11.6,12,19.2,24.3,19.2c103.5,0,206.9,0,310.4,0c0.7,0,1.5,0,2.2,0
		c12.3-0.7,22.2-11,22.5-23.4c0.3-13.8-10.4-24.6-24.7-24.6C-142.5,429.4-194.2,429.5-245.9,429.5z"/>
</g>
</svg>
