<?xml version="1.0" encoding="utf-8"?>
<!-- Generator: Adobe Illustrator 23.0.1, SVG Export Plug-In . SVG Version: 6.00 Build 0)  -->
<svg version="1.1" id="Layer_1" xmlns="http://www.w3.org/2000/svg" xmlns:xlink="http://www.w3.org/1999/xlink" x="0px" y="0px"
	 viewBox="0 0 1920 1080" style="enable-background:new 0 0 1920 1080;" xml:space="preserve">
<g>
	<g id="Layer_4">
		<g>
			<path d="M781.1,543.6V578c4.4-4.4,8.8-7.8,13.3-10.1c4.5-2.3,10.1-3.5,16.8-3.5c7.7,0,14.5,1.8,20.3,5.3s10.3,8.7,13.5,15.5
				s4.8,14.8,4.8,24c0,6.8-0.9,13.1-2.7,18.8c-1.8,5.7-4.4,10.6-7.8,14.8s-7.5,7.4-12.4,9.7c-4.8,2.3-10.2,3.4-16,3.4
				c-3.6,0-6.9-0.4-10.1-1.2s-5.8-1.9-8-3.3c-2.2-1.3-4.1-2.7-5.7-4.2s-3.6-3.6-6.2-6.4v2.2c0,4.2-1,7.5-3.1,9.6
				c-2.1,2.2-4.8,3.3-8,3.3c-3.3,0-5.9-1.1-7.9-3.3c-2-2.2-2.9-5.4-2.9-9.6v-98.5c0-4.6,1-8,2.8-10.4c1.9-2.3,4.5-3.5,8-3.5
				c3.6,0,6.3,1.1,8.2,3.3C780.2,536.3,781.1,539.4,781.1,543.6z M782.3,610.3c0,8.9,2.1,15.7,6.2,20.4c4.2,4.8,9.6,7.1,16.4,7.1
				c5.8,0,10.7-2.4,14.9-7.3c4.2-4.9,6.3-11.8,6.3-20.9c0-5.9-0.9-10.9-2.6-15.2s-4.2-7.5-7.4-9.8s-6.9-3.5-11.2-3.5
				c-4.4,0-8.2,1.2-11.7,3.5c-3.4,2.3-6.1,5.7-8,10C783.3,599.1,782.3,604.3,782.3,610.3z"/>
			<path d="M889.7,622.4v17.8c0,4.3-1,7.6-3.1,9.7s-4.7,3.2-8,3.2c-3.2,0-5.8-1.1-7.8-3.3c-2-2.2-3-5.4-3-9.7v-59.3
				c0-9.6,3.6-14.4,10.7-14.4c3.6,0,6.3,1.1,7.9,3.4c1.6,2.2,2.5,5.5,2.7,9.9c2.6-4.4,5.3-7.7,8.1-9.9s6.4-3.4,11-3.4
				s9.1,1.1,13.4,3.4c4.3,2.2,6.5,5.2,6.5,8.9c0,2.6-0.9,4.8-2.8,6.4c-1.8,1.7-3.8,2.5-6,2.5c-0.8,0-2.7-0.5-5.8-1.4
				s-5.8-1.4-8.2-1.4c-3.2,0-5.8,0.8-7.9,2.5c-2,1.6-3.6,4.1-4.7,7.3c-1.1,3.2-1.9,7.1-2.3,11.5C890,610.6,889.7,616,889.7,622.4z"
				/>
			<path d="M996.2,642.5c-5.5,4.2-10.9,7.3-16,9.4c-5.2,2.1-11,3.1-17.4,3.1c-5.9,0-11-1.1-15.5-3.4c-4.4-2.3-7.9-5.3-10.3-9.2
				s-3.6-8-3.6-12.5c0-6.1,2-11.3,6-15.6c4-4.3,9.4-7.2,16.3-8.6c1.5-0.3,5.1-1.1,10.8-2.2c5.8-1.1,10.7-2.2,14.8-3.1
				s8.6-2.1,13.4-3.5c-0.3-5.9-1.5-10.2-3.7-12.9s-6.6-4.1-13.4-4.1c-5.8,0-10.2,0.8-13.1,2.4c-2.9,1.6-5.5,3.9-7.5,7.1
				c-2.1,3.2-3.6,5.2-4.4,6.2c-0.9,1-2.7,1.5-5.6,1.5c-2.6,0-4.8-0.8-6.7-2.4c-1.9-1.6-2.8-3.7-2.8-6.2c0-3.9,1.4-7.7,4.3-11.4
				c2.8-3.7,7.3-6.7,13.3-9.1c6-2.4,13.5-3.6,22.5-3.6c10.1,0,18,1.2,23.7,3.5c5.8,2.3,9.8,6,12.2,11s3.6,11.6,3.6,19.9
				c0,5.2,0,9.6,0,13.3s-0.1,7.7-0.1,12.1c0,4.2,0.7,8.5,2.1,13.1c1.4,4.5,2.1,7.5,2.1,8.8c0,2.3-1.1,4.4-3.3,6.2
				c-2.2,1.9-4.7,2.8-7.5,2.8c-2.3,0-4.7-1.1-7-3.2C1001.2,649.7,998.7,646.6,996.2,642.5z M994.3,610.3c-3.3,1.2-8.2,2.5-14.6,3.8
				c-6.4,1.3-10.8,2.3-13.3,2.9c-2.5,0.6-4.8,1.8-7,3.7c-2.2,1.8-3.3,4.4-3.3,7.6c0,3.4,1.3,6.2,3.9,8.6c2.6,2.4,6.1,3.5,10.3,3.5
				c4.5,0,8.7-1,12.5-2.9s6.6-4.4,8.4-7.5c2.1-3.4,3.1-8.9,3.1-16.6L994.3,610.3L994.3,610.3z"/>
			<path d="M1060.6,577v2.5c4.1-5.2,8.5-9,13.3-11.5c4.8-2.4,10.4-3.7,16.6-3.7c6.1,0,11.5,1.3,16.3,3.9c4.8,2.6,8.4,6.2,10.8,10.9
				c1.5,2.7,2.5,5.7,3,8.9s0.7,7.2,0.7,12.2v41.5c0,4.3-1,7.5-3,9.7s-4.6,3.3-7.9,3.3c-3.3,0-5.9-1.1-8-3.4s-3.1-5.5-3.1-9.6v-37.2
				c0-7.5-1.1-13.2-3.2-17.2c-2.1-4-6.4-6-12.8-6c-4.2,0-8,1.2-11.4,3.6s-5.9,5.7-7.6,10c-1.1,3.4-1.7,9.7-1.7,19v27.2
				c0,4.7-1.1,8.3-3.4,10.6s-5.2,3.5-8.7,3.5c-3.4,0-6.3-1.2-8.5-3.7c-2.2-2.5-3.3-6-3.3-10.5v-63.8c0-4.3,1-7.6,2.9-9.7
				c1.9-2.1,4.6-3.2,8-3.2c2.1,0,3.9,0.5,5.6,1.4s3,2.4,4,4.3C1060.1,572,1060.6,574.3,1060.6,577z"/>
			<path d="M1226.1,627.5c0,2.8-0.8,5.7-2.6,8.9c-1.7,3.2-4.3,6.2-7.8,9c-3.5,2.8-7.9,5.2-13.2,6.9c-5.3,1.7-11.3,2.6-17.9,2.6
				c-14.1,0-25.2-4-33.1-12c-7.9-8-11.9-18.8-11.9-32.2c0-9.1,1.8-17.2,5.4-24.2s8.9-12.4,15.8-16.3s15.1-5.7,24.7-5.7
				c5.9,0,11.4,0.8,16.3,2.5c4.9,1.7,9.1,3.9,12.6,6.5c3.4,2.7,6.1,5.5,7.9,8.5s2.7,5.8,2.7,8.4c0,2.7-1,4.9-3.1,6.8
				c-2,1.8-4.5,2.8-7.4,2.8c-1.9,0-3.5-0.5-4.7-1.4s-2.7-2.5-4.2-4.6c-2.8-4.1-5.7-7.2-8.8-9.3c-3.1-2.1-6.9-3.1-11.6-3.1
				c-6.8,0-12.2,2.6-16.3,7.7s-6.2,12.2-6.2,21.1c0,4.2,0.5,8,1.6,11.5c1.1,3.5,2.6,6.5,4.6,9c2,2.5,4.4,4.3,7.3,5.6
				c2.8,1.3,6,1.9,9.4,1.9c4.6,0,8.5-1,11.8-3.1c3.3-2.1,6.2-5.2,8.7-9.5c1.4-2.5,2.9-4.5,4.5-5.9c1.6-1.4,3.6-2.1,5.9-2.1
				c2.8,0,5.1,1,7,3.1C1225.2,623,1226.1,625.2,1226.1,627.5z"/>
			<path d="M1262.7,657.8l2.1-5l-28.2-68.9c-1.7-4-2.6-6.8-2.6-8.6c0-1.9,0.5-3.7,1.5-5.3c1-1.6,2.4-2.9,4.2-3.9s3.6-1.5,5.5-1.5
				c3.3,0,5.8,1,7.5,3c1.7,2,3.2,5,4.4,8.8l9.9,28c3.2,9,15.9,9,19.1,0.1l8.7-24.2c1.4-4.1,2.8-7.4,3.9-9.7c1.2-2.3,2.4-3.9,3.7-4.7
				c1.3-0.8,3.2-1.2,5.6-1.2c1.7,0,3.4,0.5,5,1.3c1.6,0.9,2.8,2.1,3.7,3.6s1.3,3.1,1.3,4.8c-0.2,1-0.6,2.5-1.1,4.4s-1.1,3.8-1.8,5.8
				l-29.8,76c-2.6,6.7-5.1,11.9-7.5,15.7c-2.5,3.8-5.7,6.7-9.8,8.8c-4.1,2-9.5,3-16.4,3c-6.7,0-11.7-0.7-15.1-2.1s-5-4-5-7.7
				c0-2.5,0.8-4.5,2.4-5.9c1.6-1.4,3.9-2.1,7.1-2.1c1.2,0,2.4,0.2,3.6,0.5c1.4,0.3,2.7,0.5,3.8,0.5c2.6,0,4.7-0.4,6.2-1.1
				c1.5-0.8,2.9-2.1,4.1-4C1259.8,664.2,1261.2,661.5,1262.7,657.8z"/>
		</g>
	</g>
	<g id="Layer_3">
		<path d="M772,418.5h-58.1c4.1,1,8,2.5,11.5,4.8c5.9,3.9,8.9,9.5,8.8,16.8c-0.1,7.1-3,12.6-8.9,16.6c-5.8,4-12.8,5.9-20.8,5.9
			c-8.3,0-15.4-2.1-21.2-6c-5.9-4-8.8-9.6-8.7-16.8c0-6.5,3.1-11.9,9.2-16.1c3.6-2.5,7.5-4.2,11.8-5.2h-28.7
			c-16.9,0-30.4,14.4-29.9,31.8l0.5,14.8c0.3,10.1-0.4,22.4-8.1,29.7c-12.9,12.3-32.8,5.9-40.9-8.1c-8.4-14.4-17.2-28.5-25.9-42.8
			c-6.7-10.9-12.6-25.4-27.3-25.4h-14c-15.6,0-25.4,17.4-17.6,31.3l140.1,250.1c8.3,14.7,29.2,13.7,36.1-1.8l12.3-27.7
			c-4.3-1.2-8-3.2-11.2-6.1c-5.4-4.9-8.1-11.8-8-20.8l1.1-132c0.1-9.1,2.9-16,8.3-20.6s12.6-6.9,21.3-6.8c8.7,0,15.9,2.4,21.5,7.1
			c5.6,4.7,8.4,11.1,8.3,19.3l-0.6,67.4L790.4,448C796.6,434.1,786.7,418.5,772,418.5z"/>
	</g>
	<g>
		<g>
			<path d="M863.1,765c0-5.7-0.2-10.4-0.4-14.6h7.4l0.4,7.5h0c3.3-5.5,8.6-8.7,15.9-8.7c10.8,0,19,9.2,19,22.8
				c0,16.1-9.8,24.1-20.4,24.1c-5.9,0-11.1-2.6-13.8-7h-0.2v24.5h-8V765z M871.1,777.1c0,1.2,0.2,2.3,0.4,3.3
				c1.5,5.6,6.4,9.5,12.2,9.5c8.6,0,13.6-7,13.6-17.3c0-9-4.7-16.6-13.3-16.6c-5.5,0-10.7,4-12.3,10.1c-0.3,1-0.5,2.2-0.5,3.3
				L871.1,777.1L871.1,777.1z"/>
			<path d="M924.9,738c0.1,2.8-1.9,5-5.2,5c-2.9,0-4.9-2.2-4.9-5c0-2.9,2.1-5.1,5.1-5.1C923,732.9,924.9,735.1,924.9,738z
				 M915.9,795.2v-44.8h8v44.8H915.9z"/>
			<path d="M968.3,788.6h-0.4c-2.4,4.5-7.4,8-14.6,8c-10.5,0-19-9.1-19-22.7c0-16.8,10.8-24.2,20.3-24.2c7,0,11.6,3.4,13.8,7.8h-0.1
				l0.3-7.1h8c-0.2,4-0.3,8-0.3,12.9v50.3h-8L968.3,788.6L968.3,788.6z M967.8,768.6c0-1.1-0.1-2.4-0.4-3.4c-1.2-5-5.5-9.3-11.7-9.3
				c-8.4,0-13.5,7.1-13.5,17.2c0,8.9,4.3,16.6,13.2,16.6c5.3,0,9.8-3.2,11.7-8.9c0.4-1.1,0.7-2.7,0.7-3.9V768.6z"/>
			<path d="M999.4,737.6v12.8h11.8v6.1h-11.8v24.1c0,5.5,1.6,8.7,6.2,8.7c2.1,0,3.7-0.3,4.8-0.6l0.4,6.1c-1.6,0.7-4.1,1.1-7.3,1.1
				c-3.8,0-6.9-1.2-8.8-3.4c-2.3-2.4-3.2-6.4-3.2-11.7v-24.4h-7.1v-6.1h7.1v-10.7L999.4,737.6z"/>
			<path d="M1057.4,783c0,4.6,0.1,8.7,0.4,12.2h-7l-0.5-7.5h-0.6c-2.1,3.6-6.8,8.3-14.7,8.3c-7,0-15.4-3.9-15.4-19.5v-26h8v24.8
				c0,8.5,2.6,14.2,10.1,14.2c5.5,0,9.3-3.8,10.8-7.4c0.5-1.2,0.8-2.7,0.8-4.2v-27.5h8L1057.4,783L1057.4,783z"/>
			<path d="M1071,764.4c0-5.3-0.1-9.8-0.4-14h7.1l0.3,9h0.4c2.1-6.1,7-10,12.5-10c0.9,0,1.6,0.1,2.3,0.3v7.8
				c-0.8-0.2-1.7-0.3-2.8-0.3c-5.8,0-9.9,4.4-11,10.7c-0.2,1.1-0.4,2.5-0.4,3.9v23.5h-8L1071,764.4L1071,764.4z"/>
			<path d="M1104.9,774.5c0.2,11,7.2,15.5,15.3,15.5c5.8,0,9.3-1,12.4-2.3l1.4,5.8c-2.9,1.3-7.8,2.8-14.9,2.8
				c-13.8,0-22-9.1-22-22.6s7.9-24.1,21-24.1c14.6,0,18.5,12.8,18.5,21.1c0,1.7-0.2,3-0.3,3.8L1104.9,774.5L1104.9,774.5z
				 M1128.8,768.3c0.1-5.2-2.1-13.2-11.3-13.2c-8.2,0-11.8,7.6-12.5,13.2H1128.8z"/>
			<path d="M1145.6,787c2.4,1.6,6.7,3.2,10.7,3.2c5.9,0,8.7-3,8.7-6.7c0-3.9-2.3-6-8.3-8.2c-8-2.9-11.8-7.3-11.8-12.7
				c0-7.2,5.8-13.1,15.4-13.1c4.5,0,8.5,1.3,11,2.8l-2,5.9c-1.8-1.1-5-2.6-9.2-2.6c-4.8,0-7.5,2.8-7.5,6.1c0,3.7,2.7,5.4,8.5,7.6
				c7.8,3,11.7,6.8,11.7,13.5c0,7.9-6.1,13.4-16.7,13.4c-4.9,0-9.4-1.2-12.6-3L1145.6,787z"/>
		</g>
	</g>
	<g>
		<g id="Cam_Icon_2_">
			<path d="M1224.5,529.5h-29.2c0-2.1,0-4,0-6c0-36.1,0-72.3,0-108.4c0-14.1-5.5-19.4-20.1-19.4c-29.9,0-59.8-0.1-89.6,0.1
				c-3.8,0-5.9-1.1-7.7-4.4c-3.8-7-8-13.7-12.1-20.5c-5.5-9-13.9-13.5-24.4-13.6c-8.9-0.1-17.9,0.1-26.8,0.9
				c-7.7,0.6-13.5,5-17.5,11.3c-4.6,7.1-8.9,14.4-13,21.7c-1.9,3.4-4,4.6-8,4.6c-30-0.2-60.1-0.1-90.1-0.1
				c-13.7,0-19.4,5.6-19.4,19.1c0,36.1,0,72.3,0,108.4c0,2,0,6.1,0,6.3h-29.1v-7.3c-0.6-36.5-0.6-73-0.6-109.4
				c0-28.6,19.3-47.3,48.7-47.2c24,0,47.9-0.2,71.9,0.1c5.1,0.1,7.9-1.4,9.9-5.8c1.9-3.9,4.5-7.5,6.8-11.3
				c8-12.6,19.6-19.5,34.7-20.9c16.7-1.5,33.3-2,49.9,1c11.5,2,20.3,7.9,26.9,17.2c2.8,4,6,8,7.9,12.4c2.6,6.1,6.7,7.5,13.2,7.4
				c23.8-0.4,47.6-0.2,71.4-0.2c22.5,0,40.6,13.6,45.6,34.5c0.8,3.2,1.2,6.6,1.2,10c0.1,38.3,0.1,76.6,0.1,115
				C1224.7,526,1224.5,529.5,1224.5,529.5z"/>
			<path d="M1292.8,701.6L1292.8,701.6c0,4.9-5.8,8.9-13,8.9H759.5c-7.2,0-13-4-13-8.9l0,0c0-4.9,5.8-8.9,13-8.9h520.3
				C1287,692.7,1292.8,696.7,1292.8,701.6z"/>
			<path d="M1127.3,516.3h-30.1c7.1-29.5-1.2-55.9-28.8-74.1c-23.9-15.7-49.8-16-74-0.8c-28.6,18-37.2,44.8-30,76.9h-29.8
				c-7.8-28.6,1.6-70.3,35.4-96.2c33.3-25.4,79-27.5,114.2-5.2C1118.6,438.8,1136.5,480.5,1127.3,516.3z"/>
			<path d="M898.1,412.1c11.3-0.1,20.1,8.7,20.3,20.4c0.2,12-8.7,21.6-19.9,21.7c-11,0-19.8-9.3-19.9-21
				C878.4,421.3,886.9,412.2,898.1,412.1z"/>
		</g>
	</g>
</g>
</svg>
