<?xml version="1.0" encoding="utf-8"?>
<!-- Generator: Adobe Illustrator 23.0.1, SVG Export Plug-In . SVG Version: 6.00 Build 0)  -->
<svg version="1.1" xmlns="http://www.w3.org/2000/svg" xmlns:xlink="http://www.w3.org/1999/xlink" x="0px" y="0px"
	 viewBox="0 0 1920 1080" style="enable-background:new 0 0 1920 1080;" xml:space="preserve">
<g id="Layer_4">
	<g>
		<path d="M703.6,471.3v57.4c7.3-7.3,14.7-13,22.2-16.9c7.5-3.9,16.9-5.8,28-5.8c12.8,0,24.1,3,33.8,8.9
			c9.7,5.9,17.2,14.5,22.5,25.7c5.3,11.2,8,24.6,8,40c0,11.4-1.5,21.8-4.5,31.3c-3,9.5-7.3,17.7-12.9,24.7
			c-5.7,7-12.5,12.4-20.6,16.2c-8.1,3.8-17,5.7-26.7,5.7c-5.9,0-11.5-0.7-16.8-2.1s-9.7-3.2-13.4-5.4c-3.7-2.2-6.8-4.6-9.4-6.9
			c-2.6-2.4-6-6-10.3-10.7v3.7c0,7.1-1.7,12.4-5.2,16c-3.5,3.6-7.9,5.4-13.3,5.4c-5.5,0-9.8-1.8-13.1-5.4c-3.3-3.6-4.9-9-4.9-16V473
			c0-7.6,1.6-13.4,4.7-17.3c3.2-3.9,7.6-5.8,13.2-5.8c5.9,0,10.5,1.9,13.7,5.6C702,459.2,703.6,464.5,703.6,471.3z M705.6,582.5
			c0,14.7,3.5,26.1,10.4,34c6.9,7.9,16,11.9,27.3,11.9c9.6,0,17.8-4,24.8-12.1c6.9-8.1,10.4-19.7,10.4-34.8c0-9.8-1.4-18.2-4.3-25.2
			c-2.9-7.1-7-12.5-12.3-16.4c-5.3-3.8-11.5-5.8-18.6-5.8c-7.3,0-13.7,1.9-19.4,5.8c-5.7,3.8-10.1,9.4-13.4,16.7
			C707.2,563.8,705.6,572.5,705.6,582.5z"/>
		<path d="M884.5,602.6v29.6c0,7.2-1.7,12.6-5.2,16.2c-3.5,3.6-7.9,5.4-13.2,5.4c-5.3,0-9.6-1.8-13-5.5c-3.4-3.6-5.1-9-5.1-16.1
			v-98.8c0-15.9,5.9-23.9,17.8-23.9c6.1,0,10.4,1.9,13.1,5.6c2.7,3.7,4.1,9.2,4.4,16.5c4.4-7.3,8.8-12.8,13.4-16.5
			c4.6-3.7,10.7-5.6,18.4-5.6c7.7,0,15.1,1.9,22.3,5.6c7.2,3.7,10.8,8.7,10.8,14.8c0,4.3-1.5,7.9-4.6,10.7c-3.1,2.8-6.4,4.2-10,4.2
			c-1.3,0-4.6-0.8-9.7-2.4c-5.1-1.6-9.7-2.4-13.6-2.4c-5.3,0-9.7,1.4-13.1,4.1c-3.4,2.7-6,6.8-7.9,12.2c-1.9,5.4-3.2,11.8-3.9,19.2
			C884.8,582.9,884.5,592,884.5,602.6z"/>
		<path d="M1061.7,636.1c-9.2,7-18.1,12.2-26.7,15.7c-8.6,3.5-18.3,5.2-29,5.2c-9.8,0-18.4-1.9-25.8-5.6
			c-7.4-3.8-13.1-8.8-17.1-15.3c-4-6.4-6-13.4-6-20.9c0-10.1,3.3-18.8,9.9-25.9c6.6-7.1,15.7-11.9,27.2-14.4c2.4-0.5,8.4-1.8,18-3.7
			c9.6-1.9,17.8-3.6,24.6-5.2c6.8-1.6,14.3-3.5,22.3-5.8c-0.5-9.8-2.5-16.9-6.1-21.5c-3.6-4.6-11-6.9-22.3-6.9
			c-9.7,0-17,1.3-21.8,3.9c-4.9,2.6-9.1,6.6-12.6,11.8c-3.5,5.2-6,8.7-7.4,10.4c-1.4,1.7-4.5,2.5-9.3,2.5c-4.3,0-8-1.3-11.1-4
			c-3.1-2.7-4.7-6.1-4.7-10.2c0-6.5,2.4-12.8,7.1-19c4.7-6.2,12.1-11.2,22.2-15.2c10.1-4,22.6-6,37.6-6c16.8,0,29.9,1.9,39.5,5.8
			c9.6,3.8,16.4,9.9,20.3,18.3c4,8.3,5.9,19.4,5.9,33.1c0,8.7,0,16.1-0.1,22.1c0,6.1-0.1,12.8-0.2,20.2c0,7,1.2,14.2,3.6,21.8
			s3.6,12.4,3.6,14.6c0,3.8-1.8,7.3-5.5,10.4c-3.7,3.1-7.8,4.7-12.5,4.7c-3.9,0-7.8-1.8-11.6-5.4
			C1070,648.1,1066,642.9,1061.7,636.1z M1058.6,582.5c-5.6,2-13.7,4.1-24.4,6.3c-10.7,2.2-18,3.8-22.1,4.9c-4.1,1-8,3.1-11.7,6.1
			c-3.7,3-5.6,7.3-5.6,12.7c0,5.6,2.2,10.4,6.6,14.3s10.1,5.9,17.2,5.9c7.5,0,14.5-1.6,20.9-4.8c6.4-3.2,11-7.3,14-12.4
			c3.4-5.6,5.2-14.8,5.2-27.7V582.5z"/>
		<path d="M1168.9,527.1v4.2c6.8-8.7,14.2-15,22.2-19.1c8-4.1,17.3-6.1,27.7-6.1c10.1,0,19.2,2.1,27.2,6.4c8,4.3,14,10.4,17.9,18.2
			c2.5,4.6,4.2,9.5,4.9,14.8c0.8,5.3,1.1,12.1,1.1,20.3v69.1c0,7.1-1.7,12.5-5,16.2c-3.4,3.7-7.7,5.5-13.1,5.5
			c-5.5,0-9.9-1.9-13.3-5.6c-3.4-3.7-5.1-9.1-5.1-16.1V573c0-12.5-1.8-22.1-5.4-28.7c-3.6-6.6-10.7-9.9-21.4-9.9c-7,0-13.3,2-19,6
			c-5.7,4-9.9,9.6-12.6,16.6c-1.9,5.6-2.9,16.2-2.9,31.7V634c0,7.9-1.9,13.8-5.6,17.7c-3.8,3.9-8.6,5.9-14.5,5.9
			c-5.8,0-10.5-2-14.2-6.1c-3.7-4.1-5.6-9.9-5.6-17.5V527.7c0-7.2,1.6-12.6,4.8-16.2s7.7-5.3,13.3-5.3c3.4,0,6.5,0.8,9.3,2.4
			s5,3.9,6.6,7.1C1168.1,518.7,1168.9,522.6,1168.9,527.1z"/>
		<path d="M1444.6,611.2c0,4.6-1.4,9.5-4.3,14.8c-2.8,5.2-7.2,10.2-13,15c-5.8,4.8-13.1,8.6-22,11.5c-8.8,2.9-18.8,4.3-29.9,4.3
			c-23.5,0-41.9-6.7-55.1-20c-13.2-13.3-19.8-31.2-19.8-53.7c0-15.2,3-28.6,9.1-40.3c6.1-11.7,14.8-20.7,26.2-27.1
			c11.4-6.4,25.1-9.6,41-9.6c9.9,0,18.9,1.4,27.2,4.2c8.2,2.8,15.2,6.4,20.9,10.9c5.7,4.4,10.1,9.2,13.1,14.2c3,5,4.5,9.7,4.5,14
			c0,4.4-1.7,8.2-5.1,11.3c-3.4,3.1-7.5,4.6-12.4,4.6c-3.2,0-5.8-0.8-7.9-2.4c-2.1-1.6-4.4-4.1-7-7.7c-4.7-6.9-9.5-12-14.6-15.5
			c-5.1-3.4-11.5-5.2-19.3-5.2c-11.3,0-20.3,4.3-27.2,12.8c-6.9,8.5-10.3,20.2-10.3,35.1c0,7,0.9,13.4,2.7,19.2
			c1.8,5.8,4.3,10.8,7.7,14.9c3.3,4.1,7.4,7.2,12.1,9.4c4.7,2.1,10,3.2,15.6,3.2c7.6,0,14.2-1.7,19.6-5.2
			c5.4-3.4,10.3-8.7,14.4-15.7c2.3-4.2,4.8-7.4,7.5-9.8c2.7-2.4,6-3.5,9.9-3.5c4.7,0,8.5,1.7,11.6,5.2
			C1443.1,603.6,1444.6,607.3,1444.6,611.2z"/>
		<path d="M1505.6,661.6l3.5-8.3l-46.9-114.8c-2.9-6.6-4.3-11.4-4.3-14.4c0-3.2,0.8-6.1,2.5-8.8c1.7-2.7,4-4.9,6.9-6.5
			c2.9-1.6,6-2.4,9.1-2.4c5.5,0,9.6,1.7,12.4,5.1c2.8,3.4,5.3,8.3,7.4,14.6l16.5,46.6c5.3,15,26.4,15,31.8,0.1l14.5-40.3
			c2.4-6.9,4.6-12.3,6.6-16.1c2-3.9,4-6.5,6.2-7.9c2.2-1.4,5.3-2,9.3-2c2.9,0,5.7,0.7,8.3,2.2c2.7,1.5,4.7,3.5,6.1,6
			c1.4,2.5,2.2,5.2,2.2,8c-0.4,1.7-1,4.2-1.8,7.3c-0.8,3.2-1.9,6.4-3.1,9.6l-49.7,126.5c-4.3,11.1-8.5,19.9-12.6,26.2
			c-4.1,6.3-9.5,11.2-16.3,14.6c-6.7,3.4-15.8,5.1-27.3,5.1c-11.2,0-19.5-1.2-25.1-3.5c-5.6-2.4-8.4-6.7-8.4-12.9
			c0-4.3,1.3-7.5,4-9.8c2.7-2.3,6.6-3.5,11.8-3.5c2,0,4,0.3,6,0.8c2.4,0.5,4.5,0.8,6.3,0.8c4.4,0,7.8-0.6,10.3-1.9
			c2.5-1.3,4.8-3.5,6.8-6.6C1500.7,672.3,1503,667.7,1505.6,661.6z"/>
	</g>
</g>
<g id="Layer_3">
	<path d="M688.3,263h-96.7c6.9,1.6,13.3,4.3,19.1,8.1c9.9,6.4,14.8,15.8,14.7,28c-0.1,11.8-5,21-14.8,27.6
		c-9.7,6.6-21.3,9.9-34.6,9.8c-13.8-0.1-25.6-3.4-35.3-10.1c-9.8-6.6-14.6-15.9-14.5-28c0.1-10.9,5.2-19.8,15.3-26.8
		c6-4.1,12.5-7,19.6-8.6h-47.7c-28.1,0-50.7,24-49.7,52.9c0,0,0.8,24.7,0.8,24.7c0.6,16.8-0.7,37.2-13.5,49.5
		c-21.4,20.5-54.6,9.8-68.2-13.5c-14-24-28.7-47.5-43.2-71.2c-11.1-18.1-20.9-42.3-45.4-42.3c0,0-23.3,0-23.3,0
		c-26,0-42.3,28.9-29.3,52.1l233.3,416.5c13.7,24.5,48.7,22.8,60.1-3l20.4-46.2c-7.1-2-13.4-5.3-18.7-10.1
		c-9-8.1-13.5-19.7-13.3-34.7l1.8-219.9c0.1-15.2,4.8-26.6,13.9-34.3c9.1-7.6,21-11.4,35.5-11.3c14.5,0.1,26.5,4,35.9,11.8
		c9.4,7.8,14,18.5,13.9,32.2l-0.9,112.3l95.6-216.3C729.3,289.1,712.9,263,688.3,263z"/>
</g>
<g id="Layer_2">
	<g>
		<path d="M840.1,840.2c0-9.6-0.3-17.3-0.6-24.4h12.4l0.6,12.6h0c5.6-9.1,14.3-14.5,26.5-14.5c18,0,31.6,15.3,31.6,37.9
			c0,26.8-16.3,40.1-33.9,40.1c-9.9,0-18.5-4.3-23-11.7h-0.3V921h-13.3V840.2z M853.5,860.2c0,2,0.3,3.8,0.6,5.5
			c2.5,9.4,10.6,15.9,20.3,15.9c14.3,0,22.6-11.7,22.6-28.8c0-14.9-7.9-27.7-22.2-27.7c-9.2,0-17.9,6.6-20.5,16.8
			c-0.5,1.7-0.9,3.7-0.9,5.5V860.2z"/>
		<path d="M943.1,795c0.2,4.6-3.2,8.3-8.6,8.3c-4.8,0-8.2-3.7-8.2-8.3c0-4.8,3.5-8.5,8.5-8.5C939.8,786.6,943.1,790.3,943.1,795z
			 M928.1,890.4v-74.6h13.3v74.6H928.1z"/>
		<path d="M1015.2,879.4h-0.7c-4,7.4-12.3,13.3-24.4,13.3c-17.4,0-31.6-15.1-31.6-37.8c0-27.9,18-40.2,33.8-40.2
			c11.6,0,19.3,5.7,23,13h-0.1l0.5-11.8h13.4c-0.3,6.6-0.5,13.4-0.5,21.5V921h-13.3V879.4z M1014.4,846.2c0-1.8-0.2-4-0.6-5.7
			c-2-8.3-9.2-15.4-19.4-15.4c-14,0-22.5,11.9-22.5,28.6c0,14.8,7.1,27.7,22,27.7c8.8,0,16.3-5.4,19.4-14.8c0.6-1.8,1.1-4.5,1.1-6.5
			V846.2z"/>
		<path d="M1067,794.4v21.4h19.6V826H1067v40.2c0,9.2,2.6,14.5,10.2,14.5c3.6,0,6.2-0.5,7.9-0.9l0.6,10.2c-2.6,1.1-6.8,1.8-12.1,1.8
			c-6.4,0-11.5-2-14.7-5.7c-3.9-4-5.3-10.6-5.3-19.4V826h-11.8v-10.2h11.8v-17.9L1067,794.4z"/>
		<path d="M1163.6,870c0,7.7,0.2,14.5,0.6,20.3h-11.6l-0.8-12.6h-1c-3.5,6-11.3,13.8-24.5,13.8c-11.6,0-25.6-6.4-25.6-32.5v-43.3
			h13.3v41.3c0,14.2,4.4,23.7,16.8,23.7c9.2,0,15.6-6.3,18.1-12.3c0.8-2,1.2-4.5,1.2-6.9v-45.7h13.3V870z"/>
		<path d="M1186.4,839.1c0-8.8-0.2-16.3-0.6-23.3h11.8l0.5,14.9h0.6c3.4-10.2,11.6-16.6,20.8-16.6c1.5,0,2.6,0.2,3.9,0.5v13
			c-1.4-0.3-2.8-0.5-4.6-0.5c-9.6,0-16.4,7.4-18.3,17.7c-0.3,1.9-0.6,4.1-0.6,6.4v39.1h-13.3V839.1z"/>
		<path d="M1242.8,855.8c0.3,18.3,12,25.9,25.6,25.9c9.7,0,15.6-1.7,20.6-3.8l2.3,9.7c-4.8,2.2-12.9,4.6-24.8,4.6
			c-22.9,0-36.6-15.1-36.6-37.6c0-22.5,13.2-40.2,35-40.2c24.3,0,30.8,21.4,30.8,35.1c0,2.8-0.3,4.9-0.5,6.3H1242.8z M1282.6,845.6
			c0.2-8.6-3.5-22-18.8-22c-13.7,0-19.7,12.6-20.8,22H1282.6z"/>
		<path d="M1310.6,876.7c4,2.6,11.1,5.4,17.9,5.4c9.9,0,14.5-4.9,14.5-11.1c0-6.5-3.8-10-13.9-13.7c-13.4-4.8-19.7-12.2-19.7-21.1
			c0-12,9.7-21.9,25.7-21.9c7.5,0,14.2,2.2,18.3,4.6l-3.4,9.9c-2.9-1.8-8.3-4.3-15.2-4.3c-8,0-12.5,4.6-12.5,10.2
			c0,6.2,4.5,8.9,14.2,12.6c12.9,4.9,19.6,11.4,19.6,22.5c0,13.1-10.2,22.3-27.9,22.3c-8.2,0-15.7-2-20.9-5.1L1310.6,876.7z"/>
	</g>
</g>
<g id="Layer_1">
	<g id="Cam_Icon_2_">
		<path d="M1441.9,448h-48.7c0-3.5,0-6.7,0-10c0-60.2,0-120.4,0-180.6c0-23.5-9.1-32.2-33.5-32.3c-49.7,0-99.5-0.1-149.2,0.1
			c-6.3,0-9.8-1.9-12.7-7.3c-6.3-11.6-13.3-22.9-20.2-34.2c-9.1-15-23.1-22.4-40.7-22.7c-14.9-0.2-29.8,0.2-44.7,1.5
			c-12.8,1.1-22.5,8.4-29.2,18.8c-7.6,11.9-14.9,23.9-21.7,36.2c-3.1,5.6-6.7,7.7-13.4,7.7c-50-0.3-100.1-0.2-150.1-0.2
			c-22.9,0-32.3,9.3-32.3,31.8c0,60.2,0,120.4,0,180.6c0,3.3,0,10.1,0,10.4h-48.4v-12.1c-1-60.7-1-121.5-1-182.2
			c0-47.6,32.1-78.7,81-78.7c39.9,0,79.8-0.3,119.7,0.2c8.4,0.1,13.1-2.4,16.5-9.7c3.1-6.6,7.5-12.6,11.4-18.7
			c13.3-21,32.6-32.4,57.7-34.7c27.8-2.6,55.5-3.3,83.2,1.6c19.1,3.4,33.9,13.2,44.8,28.7c4.7,6.7,9.9,13.3,13.1,20.6
			c4.4,10.1,11.2,12.5,21.9,12.3c39.6-0.7,79.2-0.3,118.8-0.3c37.5,0.1,67.6,22.7,75.9,57.4c1.3,5.4,2,11.1,2,16.6
			c0.1,63.8,0.1,127.7,0.1,191.5C1442.3,442.1,1441.9,448,1441.9,448z"/>
		<path d="M1555.8,734.5L1555.8,734.5c0,8.2-9.7,14.9-21.7,14.9H667.6c-12,0-21.7-6.7-21.7-14.9v0c0-8.2,9.7-14.9,21.7-14.9h866.4
			C1546.1,719.7,1555.8,726.3,1555.8,734.5z"/>
		<path d="M1280,425.9h-50.2c11.8-49.2-1.9-93.2-47.9-123.3c-39.8-26.1-82.9-26.7-123.3-1.3c-47.6,30-61.9,74.5-50,128h-49.7
			c-13-47.6,2.6-117.1,59-160.3c55.4-42.3,131.5-45.9,190.1-8.7C1265.7,296.9,1295.4,366.3,1280,425.9z"/>
		<path d="M898.3,252.3c18.9-0.2,33.4,14.5,33.8,34c0.3,20-14.4,36.1-33.2,36.1c-18.3,0-33-15.4-33.2-34.9
			C865.6,267.8,879.7,252.5,898.3,252.3z"/>
	</g>
</g>
</svg>
