<svg id="Layer_1" data-name="Layer 1" xmlns="http://www.w3.org/2000/svg" viewBox="0 0 161.22 165.12"><title>X logo icon</title><path d="M432.84,311.67l-1.9,2.2-51.62,60.06c-.57.66-1.14,1.3-1.69,2a.89.89,0,0,1-.73.36h-13a1.2,1.2,0,0,1-.2,0,.41.41,0,0,1,0-.08.06.06,0,0,1,0-.06.54.54,0,0,1,.07-.13l.14-.16,62.58-72.85.09-.12a.33.33,0,0,0,0-.06.63.63,0,0,1,0-.12l-62.91-91.41c.3,0,.48-.06.66-.06q23.14,0,46.29,0a1.17,1.17,0,0,1,1.06.69l17.46,25.37,23.43,34c.14.22.3.42.49.68l.56-.62q19.92-23.19,39.84-46.36c3.8-4.42,7.62-8.82,11.42-13.25a1.38,1.38,0,0,1,1.16-.53c4.08,0,8.16,0,12.24,0H519c0,.07,0,.09,0,.12v.06l0,.07,0,.06-.09.11-.14.16L459.54,280.6l-.09.11,0,.06,0,.06a1.08,1.08,0,0,0,0,.16l65.57,95.27h-.87q-23,0-46,0a1.24,1.24,0,0,1-1.15-.63q-19.84-28.86-39.7-57.7-1.95-2.81-3.88-5.63C433.18,312.12,433,311.93,432.84,311.67ZM384.31,222c.27.41.46.7.66,1l55.83,81.11,41.13,59.76c.36.51.73,1,1.09,1.51.65,0,1.29.06,1.94.06h18.43l.93,0L405.61,222Z" transform="translate(-363.7 -211.15)"/></svg>